<svg xmlns="http://www.w3.org/2000/svg" width="216" height="216"><rect x="0" y="0" width="16" height="16" fill="#552CB7" opacity="0.060"/><rect x="18" y="0" width="16" height="16" fill="#552CB7" opacity="0.015"/><rect x="36" y="0" width="16" height="16" fill="#552CB7" opacity="0.030"/><rect x="54" y="0" width="16" height="16" fill="#552CB7" opacity="0.014"/><rect x="72" y="0" width="16" height="16" fill="#552CB7" opacity="0.063"/><rect x="90" y="0" width="16" height="16" fill="#552CB7" opacity="0.017"/><rect x="108" y="0" width="16" height="16" fill="#552CB7" opacity="0.039"/><rect x="126" y="0" width="16" height="16" fill="#552CB7" opacity="0.037"/><rect x="144" y="0" width="16" height="16" fill="#552CB7" opacity="0.011"/><rect x="162" y="0" width="16" height="16" fill="#552CB7" opacity="0.012"/><rect x="180" y="0" width="16" height="16" fill="#552CB7" opacity="0.053"/><rect x="198" y="0" width="16" height="16" fill="#552CB7" opacity="0.060"/><rect x="0" y="18" width="16" height="16" fill="#552CB7" opacity="0.064"/><rect x="18" y="18" width="16" height="16" fill="#552CB7" opacity="0.043"/><rect x="36" y="18" width="16" height="16" fill="#552CB7" opacity="0.050"/><rect x="54" y="18" width="16" height="16" fill="#552CB7" opacity="0.051"/><rect x="72" y="18" width="16" height="16" fill="#552CB7" opacity="0.067"/><rect x="90" y="18" width="16" height="16" fill="#552CB7" opacity="0.045"/><rect x="108" y="18" width="16" height="16" fill="#552CB7" opacity="0.026"/><rect x="126" y="18" width="16" height="16" fill="#552CB7" opacity="0.014"/><rect x="144" y="18" width="16" height="16" fill="#552CB7" opacity="0.050"/><rect x="162" y="18" width="16" height="16" fill="#552CB7" opacity="0.020"/><rect x="180" y="18" width="16" height="16" fill="#552CB7" opacity="0.016"/><rect x="198" y="18" width="16" height="16" fill="#552CB7" opacity="0.043"/><rect x="0" y="36" width="16" height="16" fill="#552CB7" opacity="0.059"/><rect x="18" y="36" width="16" height="16" fill="#552CB7" opacity="0.024"/><rect x="36" y="36" width="16" height="16" fill="#552CB7" opacity="0.061"/><rect x="54" y="36" width="16" height="16" fill="#552CB7" opacity="0.012"/><rect x="72" y="36" width="16" height="16" fill="#552CB7" opacity="0.011"/><rect x="90" y="36" width="16" height="16" fill="#552CB7" opacity="0.054"/><rect x="108" y="36" width="16" height="16" fill="#552CB7" opacity="0.047"/><rect x="126" y="36" width="16" height="16" fill="#552CB7" opacity="0.011"/><rect x="144" y="36" width="16" height="16" fill="#552CB7" opacity="0.011"/><rect x="162" y="36" width="16" height="16" fill="#552CB7" opacity="0.013"/><rect x="180" y="36" width="16" height="16" fill="#552CB7" opacity="0.026"/><rect x="198" y="36" width="16" height="16" fill="#552CB7" opacity="0.060"/><rect x="0" y="54" width="16" height="16" fill="#552CB7" opacity="0.025"/><rect x="18" y="54" width="16" height="16" fill="#552CB7" opacity="0.052"/><rect x="36" y="54" width="16" height="16" fill="#552CB7" opacity="0.026"/><rect x="54" y="54" width="16" height="16" fill="#552CB7" opacity="0.021"/><rect x="72" y="54" width="16" height="16" fill="#552CB7" opacity="0.038"/><rect x="90" y="54" width="16" height="16" fill="#552CB7" opacity="0.031"/><rect x="108" y="54" width="16" height="16" fill="#552CB7" opacity="0.058"/><rect x="126" y="54" width="16" height="16" fill="#552CB7" opacity="0.011"/><rect x="144" y="54" width="16" height="16" fill="#552CB7" opacity="0.063"/><rect x="162" y="54" width="16" height="16" fill="#552CB7" opacity="0.043"/><rect x="180" y="54" width="16" height="16" fill="#552CB7" opacity="0.023"/><rect x="198" y="54" width="16" height="16" fill="#552CB7" opacity="0.038"/><rect x="0" y="72" width="16" height="16" fill="#552CB7" opacity="0.014"/><rect x="18" y="72" width="16" height="16" fill="#552CB7" opacity="0.041"/><rect x="36" y="72" width="16" height="16" fill="#552CB7" opacity="0.019"/><rect x="54" y="72" width="16" height="16" fill="#552CB7" opacity="0.015"/><rect x="72" y="72" width="16" height="16" fill="#552CB7" opacity="0.042"/><rect x="90" y="72" width="16" height="16" fill="#552CB7" opacity="0.038"/><rect x="108" y="72" width="16" height="16" fill="#552CB7" opacity="0.045"/><rect x="126" y="72" width="16" height="16" fill="#552CB7" opacity="0.038"/><rect x="144" y="72" width="16" height="16" fill="#552CB7" opacity="0.057"/><rect x="162" y="72" width="16" height="16" fill="#552CB7" opacity="0.022"/><rect x="180" y="72" width="16" height="16" fill="#552CB7" opacity="0.033"/><rect x="198" y="72" width="16" height="16" fill="#552CB7" opacity="0.059"/><rect x="0" y="90" width="16" height="16" fill="#552CB7" opacity="0.046"/><rect x="18" y="90" width="16" height="16" fill="#552CB7" opacity="0.021"/><rect x="36" y="90" width="16" height="16" fill="#552CB7" opacity="0.031"/><rect x="54" y="90" width="16" height="16" fill="#552CB7" opacity="0.033"/><rect x="72" y="90" width="16" height="16" fill="#552CB7" opacity="0.025"/><rect x="90" y="90" width="16" height="16" fill="#552CB7" opacity="0.050"/><rect x="108" y="90" width="16" height="16" fill="#552CB7" opacity="0.012"/><rect x="126" y="90" width="16" height="16" fill="#552CB7" opacity="0.059"/><rect x="144" y="90" width="16" height="16" fill="#552CB7" opacity="0.025"/><rect x="162" y="90" width="16" height="16" fill="#552CB7" opacity="0.023"/><rect x="180" y="90" width="16" height="16" fill="#552CB7" opacity="0.054"/><rect x="198" y="90" width="16" height="16" fill="#552CB7" opacity="0.044"/><rect x="0" y="108" width="16" height="16" fill="#552CB7" opacity="0.030"/><rect x="18" y="108" width="16" height="16" fill="#552CB7" opacity="0.054"/><rect x="36" y="108" width="16" height="16" fill="#552CB7" opacity="0.057"/><rect x="54" y="108" width="16" height="16" fill="#552CB7" opacity="0.023"/><rect x="72" y="108" width="16" height="16" fill="#552CB7" opacity="0.011"/><rect x="90" y="108" width="16" height="16" fill="#552CB7" opacity="0.021"/><rect x="108" y="108" width="16" height="16" fill="#552CB7" opacity="0.051"/><rect x="126" y="108" width="16" height="16" fill="#552CB7" opacity="0.057"/><rect x="144" y="108" width="16" height="16" fill="#552CB7" opacity="0.039"/><rect x="162" y="108" width="16" height="16" fill="#552CB7" opacity="0.022"/><rect x="180" y="108" width="16" height="16" fill="#552CB7" opacity="0.048"/><rect x="198" y="108" width="16" height="16" fill="#552CB7" opacity="0.041"/><rect x="0" y="126" width="16" height="16" fill="#552CB7" opacity="0.014"/><rect x="18" y="126" width="16" height="16" fill="#552CB7" opacity="0.022"/><rect x="36" y="126" width="16" height="16" fill="#552CB7" opacity="0.057"/><rect x="54" y="126" width="16" height="16" fill="#552CB7" opacity="0.021"/><rect x="72" y="126" width="16" height="16" fill="#552CB7" opacity="0.051"/><rect x="90" y="126" width="16" height="16" fill="#552CB7" opacity="0.049"/><rect x="108" y="126" width="16" height="16" fill="#552CB7" opacity="0.055"/><rect x="126" y="126" width="16" height="16" fill="#552CB7" opacity="0.011"/><rect x="144" y="126" width="16" height="16" fill="#552CB7" opacity="0.030"/><rect x="162" y="126" width="16" height="16" fill="#552CB7" opacity="0.053"/><rect x="180" y="126" width="16" height="16" fill="#552CB7" opacity="0.011"/><rect x="198" y="126" width="16" height="16" fill="#552CB7" opacity="0.052"/><rect x="0" y="144" width="16" height="16" fill="#552CB7" opacity="0.033"/><rect x="18" y="144" width="16" height="16" fill="#552CB7" opacity="0.054"/><rect x="36" y="144" width="16" height="16" fill="#552CB7" opacity="0.027"/><rect x="54" y="144" width="16" height="16" fill="#552CB7" opacity="0.065"/><rect x="72" y="144" width="16" height="16" fill="#552CB7" opacity="0.038"/><rect x="90" y="144" width="16" height="16" fill="#552CB7" opacity="0.068"/><rect x="108" y="144" width="16" height="16" fill="#552CB7" opacity="0.044"/><rect x="126" y="144" width="16" height="16" fill="#552CB7" opacity="0.029"/><rect x="144" y="144" width="16" height="16" fill="#552CB7" opacity="0.042"/><rect x="162" y="144" width="16" height="16" fill="#552CB7" opacity="0.057"/><rect x="180" y="144" width="16" height="16" fill="#552CB7" opacity="0.063"/><rect x="198" y="144" width="16" height="16" fill="#552CB7" opacity="0.052"/><rect x="0" y="162" width="16" height="16" fill="#552CB7" opacity="0.039"/><rect x="18" y="162" width="16" height="16" fill="#552CB7" opacity="0.050"/><rect x="36" y="162" width="16" height="16" fill="#552CB7" opacity="0.042"/><rect x="54" y="162" width="16" height="16" fill="#552CB7" opacity="0.011"/><rect x="72" y="162" width="16" height="16" fill="#552CB7" opacity="0.036"/><rect x="90" y="162" width="16" height="16" fill="#552CB7" opacity="0.028"/><rect x="108" y="162" width="16" height="16" fill="#552CB7" opacity="0.039"/><rect x="126" y="162" width="16" height="16" fill="#552CB7" opacity="0.043"/><rect x="144" y="162" width="16" height="16" fill="#552CB7" opacity="0.030"/><rect x="162" y="162" width="16" height="16" fill="#552CB7" opacity="0.068"/><rect x="180" y="162" width="16" height="16" fill="#552CB7" opacity="0.029"/><rect x="198" y="162" width="16" height="16" fill="#552CB7" opacity="0.012"/><rect x="0" y="180" width="16" height="16" fill="#552CB7" opacity="0.065"/><rect x="18" y="180" width="16" height="16" fill="#552CB7" opacity="0.014"/><rect x="36" y="180" width="16" height="16" fill="#552CB7" opacity="0.014"/><rect x="54" y="180" width="16" height="16" fill="#552CB7" opacity="0.049"/><rect x="72" y="180" width="16" height="16" fill="#552CB7" opacity="0.057"/><rect x="90" y="180" width="16" height="16" fill="#552CB7" opacity="0.015"/><rect x="108" y="180" width="16" height="16" fill="#552CB7" opacity="0.057"/><rect x="126" y="180" width="16" height="16" fill="#552CB7" opacity="0.036"/><rect x="144" y="180" width="16" height="16" fill="#552CB7" opacity="0.057"/><rect x="162" y="180" width="16" height="16" fill="#552CB7" opacity="0.015"/><rect x="180" y="180" width="16" height="16" fill="#552CB7" opacity="0.039"/><rect x="198" y="180" width="16" height="16" fill="#552CB7" opacity="0.016"/><rect x="0" y="198" width="16" height="16" fill="#552CB7" opacity="0.043"/><rect x="18" y="198" width="16" height="16" fill="#552CB7" opacity="0.031"/><rect x="36" y="198" width="16" height="16" fill="#552CB7" opacity="0.030"/><rect x="54" y="198" width="16" height="16" fill="#552CB7" opacity="0.036"/><rect x="72" y="198" width="16" height="16" fill="#552CB7" opacity="0.027"/><rect x="90" y="198" width="16" height="16" fill="#552CB7" opacity="0.068"/><rect x="108" y="198" width="16" height="16" fill="#552CB7" opacity="0.066"/><rect x="126" y="198" width="16" height="16" fill="#552CB7" opacity="0.068"/><rect x="144" y="198" width="16" height="16" fill="#552CB7" opacity="0.020"/><rect x="162" y="198" width="16" height="16" fill="#552CB7" opacity="0.014"/><rect x="180" y="198" width="16" height="16" fill="#552CB7" opacity="0.011"/><rect x="198" y="198" width="16" height="16" fill="#552CB7" opacity="0.032"/></svg>
